<?xml version="1.0" encoding="UTF-8"?>
<svg xmlns="http://www.w3.org/2000/svg" xmlns:xlink="http://www.w3.org/1999/xlink" width="96px" height="96px" viewBox="0 0 96 96" version="1.1">
<g id="surface1">
<path style=" stroke:none;fill-rule:nonzero;fill:rgb(96.470588%,52.156863%,21.176471%);fill-opacity:1;" d="M 16.039062 75.714844 L 4.824219 77.828125 L 4.824219 17.828125 L 16.039062 19.945312 L 16.039062 75.714844 "/>
<path style=" stroke:none;fill-rule:nonzero;fill:rgb(96.470588%,52.156863%,21.176471%);fill-opacity:1;" d="M 30.035156 79.257812 L 16.039062 82.542969 L 16.039062 13.195312 L 30.035156 16.476562 L 30.035156 79.257812 M 47.988281 82.894531 L 30.035156 88.320312 L 30.035156 7.414062 L 47.988281 12.839844 L 47.988281 82.894531 M 95.988281 75.894531 L 47.988281 95.71875 L 47.988281 0 L 95.988281 19.824219 L 95.988281 75.894531 "/>
<path style=" stroke:none;fill-rule:nonzero;fill:rgb(61.568627%,31.372549%,14.509804%);fill-opacity:1;" d="M 38.417969 3.953125 L 47.988281 0 L 47.988281 95.71875 L 38.417969 91.769531 L 38.417969 3.953125 M 22.628906 10.472656 L 30.035156 7.414062 L 30.035156 88.304688 L 22.628906 85.246094 L 22.628906 10.472656 M 10.140625 15.632812 L 16.039062 13.195312 L 16.039062 82.523438 L 10.140625 80.085938 L 10.140625 15.632812 M 4.824219 17.828125 L 0.0117188 19.8125 L 0.0117188 75.90625 L 4.824219 77.894531 L 4.824219 17.828125 "/>
</g>
</svg>
